HIERARCHY
ROOT hip
{
  OFFSET 0 0 0
  CHANNELS 6 Xposition Yposition Zposition Zrotation Yrotation Xrotation
  JOINT abdomen
  {
    OFFSET 0 20.6881 -0.73152
    CHANNELS 3 Zrotation Xrotation Yrotation
    JOINT chest
    {
      OFFSET 0 11.7043 -0.48768
      CHANNELS 3 Zrotation Xrotation Yrotation
      JOINT neck
      {
        OFFSET 0 22.1894 -2.19456
        CHANNELS 3 Zrotation Xrotation Yrotation
        JOINT head
        {
          OFFSET -0.24384 7.07133 1.2192
          CHANNELS 3 Zrotation Xrotation Yrotation
          JOINT leftEye
          {
            OFFSET 4.14528 8.04674 8.04672
            CHANNELS 3 Zrotation Xrotation Yrotation
            End Site
            {
              OFFSET 1 0 0
            }
          }
          JOINT rightEye
          {
            OFFSET -3.6576 8.04674 8.04672
            CHANNELS 3 Zrotation Xrotation Yrotation
            End Site
            {
              OFFSET 1 0 0
            }
          }
        }
      }
      JOINT rCollar
      {
        OFFSET -2.68224 19.2634 -4.8768
        CHANNELS 3 Zrotation Xrotation Yrotation
        JOINT rShldr
        {
          OFFSET -8.77824 -1.95073 1.46304
          CHANNELS 3 Zrotation Xrotation Yrotation
          JOINT rForeArm
          {
            OFFSET -28.1742 -1.7115 0.48768
            CHANNELS 3 Zrotation Xrotation Yrotation
            JOINT rHand
            {
              OFFSET -22.5879 0.773209 7.07136
              CHANNELS 3 Zrotation Xrotation Yrotation
              JOINT rThumb1
              {
                OFFSET -1.2192 -0.487915 3.41376
                CHANNELS 3 Zrotation Xrotation Yrotation
                JOINT rThumb2
                {
                  OFFSET -3.37035 -0.52449 3.41376
                  CHANNELS 3 Zrotation Xrotation Yrotation
                  End Site
                  {
                    OFFSET -1.78271 -1.18214 1.43049
                  }
                }
              }
              JOINT rIndex1
              {
                OFFSET -7.75947 0.938293 5.60832
                CHANNELS 3 Zrotation Xrotation Yrotation
                JOINT rIndex2
                {
                  OFFSET -2.54057 -0.884171 1.56538
                  CHANNELS 3 Zrotation Xrotation Yrotation
                  End Site
                  {
                    OFFSET -1.62519 -0.234802 1.16502
                  }
                }
              }
              JOINT rMid1
              {
                OFFSET -8.24714 1.18213 3.41376
                CHANNELS 3 Zrotation Xrotation Yrotation
                JOINT rMid2
                {
                  OFFSET -3.10165 -0.590103 1.0647
                  CHANNELS 3 Zrotation Xrotation Yrotation
                  End Site
                  {
                    OFFSET -2.48547 -0.328903 0.83742
                  }
                }
              }
              JOINT rRing1
              {
                OFFSET -8.82822 0.546677 1.51678
                CHANNELS 3 Zrotation Xrotation Yrotation
                JOINT rRing2
                {
                  OFFSET -2.60934 -0.819778 -0.0198488
                  CHANNELS 3 Zrotation Xrotation Yrotation
                  End Site
                  {
                    OFFSET -2.33842 -0.294052 0.168128
                  }
                }
              }
              JOINT rPinky1
              {
                OFFSET -8.27202 -0.0477905 -0.4584
                CHANNELS 3 Zrotation Xrotation Yrotation
                JOINT rPinky2
                {
                  OFFSET -1.82734 -0.647385 -0.700984
                  CHANNELS 3 Zrotation Xrotation Yrotation
                  End Site
                  {
                    OFFSET -1.69225 -0.51767 -0.607171
                  }
                }
              }
            }
          }
        }
      }
      JOINT lCollar
      {
        OFFSET 2.68224 19.2634 -4.8768
        CHANNELS 3 Zrotation Xrotation Yrotation
        JOINT lShldr
        {
          OFFSET 8.77824 -1.95073 1.46304
          CHANNELS 3 Zrotation Xrotation Yrotation
          JOINT lForeArm
          {
            OFFSET 28.1742 -1.7115 0.48768
            CHANNELS 3 Zrotation Xrotation Yrotation
            JOINT lHand
            {
              OFFSET 22.5879 0.773209 7.07136
              CHANNELS 3 Zrotation Xrotation Yrotation
              JOINT lThumb1
              {
                OFFSET 1.2192 -0.487915 3.41376
                CHANNELS 3 Zrotation Xrotation Yrotation
                JOINT lThumb2
                {
                  OFFSET 3.37035 -0.52449 3.41376
                  CHANNELS 3 Zrotation Xrotation Yrotation
                  End Site
                  {
                    OFFSET 1.78271 -1.18214 1.43049
                  }
                }
              }
              JOINT lIndex1
              {
                OFFSET 7.75947 0.938293 5.60832
                CHANNELS 3 Zrotation Xrotation Yrotation
                JOINT lIndex2
                {
                  OFFSET 2.54057 -0.884171 1.56538
                  CHANNELS 3 Zrotation Xrotation Yrotation
                  End Site
                  {
                    OFFSET 1.62519 -0.234802 1.16502
                  }
                }
              }
              JOINT lMid1
              {
                OFFSET 8.24714 1.18213 3.41376
                CHANNELS 3 Zrotation Xrotation Yrotation
                JOINT lMid2
                {
                  OFFSET 3.10165 -0.590103 1.0647
                  CHANNELS 3 Zrotation Xrotation Yrotation
                  End Site
                  {
                    OFFSET 2.48547 -0.328903 0.83742
                  }
                }
              }
              JOINT lRing1
              {
                OFFSET 8.82822 0.546677 1.51678
                CHANNELS 3 Zrotation Xrotation Yrotation
                JOINT lRing2
                {
                  OFFSET 2.60934 -0.819778 -0.0198488
                  CHANNELS 3 Zrotation Xrotation Yrotation
                  End Site
                  {
                    OFFSET 2.33842 -0.294052 0.168128
                  }
                }
              }
              JOINT lPinky1
              {
                OFFSET 8.27202 -0.0477905 -0.4584
                CHANNELS 3 Zrotation Xrotation Yrotation
                JOINT lPinky2
                {
                  OFFSET 1.82734 -0.647385 -0.700984
                  CHANNELS 3 Zrotation Xrotation Yrotation
                  End Site
                  {
                    OFFSET 1.69225 -0.51767 -0.607171
                  }
                }
              }
            }
          }
        }
      }
    }
  }
  JOINT rButtock
  {
    OFFSET -8.77824 4.35084 1.2192
    CHANNELS 3 Zrotation Xrotation Yrotation
    JOINT rThigh
    {
      OFFSET 0 -1.70687 -2.19456
      CHANNELS 3 Zrotation Xrotation Yrotation
      JOINT rShin
      {
        OFFSET 0 -36.8199 0.73152
        CHANNELS 3 Zrotation Xrotation Yrotation
        JOINT rFoot
        {
          OFFSET 0.73152 -45.1104 -5.12064
          CHANNELS 3 Zrotation Xrotation Yrotation
          End Site
          {
            OFFSET -1.1221 -3.69964 12.103
          }
        }
      }
    }
  }
  JOINT lButtock
  {
    OFFSET 8.77824 4.35084 1.2192
    CHANNELS 3 Zrotation Xrotation Yrotation
    JOINT lThigh
    {
      OFFSET 0 -1.70687 -2.19456
      CHANNELS 3 Zrotation Xrotation Yrotation
      JOINT lShin
      {
        OFFSET 0 -36.8199 0.73152
        CHANNELS 3 Zrotation Xrotation Yrotation
        JOINT lFoot
        {
          OFFSET -0.73152 -45.1104 -5.12064
          CHANNELS 3 Zrotation Xrotation Yrotation
          End Site
          {
            OFFSET 1.1221 -3.69964 12.103
          }
        }
      }
    }
  }
}
MOTION
Frames:	8
Frame Time:	0.03333
-55.0068 57.9629 16.886499999999998 -170.118185 -54.857773 170.946688 -0.693843 12.816594 -0.0 0.946231 -12.008399 17.712696 -9.723919 17.126582 -43.666068 31.336778 -4.222139 71.449986 6.606614 -0.23617 -4.090087 -3.044051 0.19768 -7.429384 -128.727724 54.765226 133.07602 -96.628039 28.86835 83.020254 177.298078 -19.622556 -69.733327 -17.083442 -44.450376 -10.51875 -4.216778 -1.357363 -0.06197 45.317487 -60.827496 -14.930854 -136.956051 3.190415 112.969608 -157.118892 -14.380905 116.692886 12.678835 -43.764503 -4.164654 -130.080849 52.615575 119.232812 -1.549628 25.965758 3.557513 -173.005636 -65.313243 164.974704 3.626976 16.350938 11.802448 -119.819614 -26.082542 -121.995757 138.438486 46.908182 -143.693849 -125.215405 -31.003609 -157.323907 60.447702 -30.243887 -45.650864 -7.52883 -3.308517 -3.221412 6.132598 6.550137 -1.241106 112.594713 -4.736291 -105.789022 156.933219 -29.78565 -124.858399 19.646772 55.761743 -6.565792 141.402938 38.06546 -126.837787 -0.345708 -1.489202 -6.051411 -0.345544 -0.595563 1.83852 151.433876 7.336331 -168.288208 129.204709 -29.116759 127.255071 14.67882 -25.986877 8.326352 144.268004 76.277998 29.653149 167.926161 40.758853 7.76744 71.178263 80.172447 -172.053645 84.284125 55.389745 23.544384 0.014555 -1.434051 0.581551 60.616047 -39.362145 70.346803 18.67091 66.388789 -77.352144 -179.031309 -71.741174 -66.758898
-55.3644 57.9749 16.9131 -169.992137 -54.702401 170.98173 -0.17928 12.615832 -6.981443 1.995961 -11.752413 24.674232 9.531105 20.215982 84.242805 -28.450238 -2.70739 -60.037896 6.681748 -0.293492 -5.024454 -2.978744 0.18874 -7.249468 -129.530121 54.272812 133.910145 66.724607 -36.247897 86.259104 -95.202069 -38.684899 65.362973 -166.301686 -37.600077 161.897322 -84.114354 38.024148 42.811378 22.335086 -25.891452 25.797517 -175.715668 -53.053951 115.859527 -169.286557 -29.286302 111.594293 -152.719745 18.242517 138.062094 13.588424 -29.924516 -0.172235 -1.024253 14.189446 -0.273151 80.896749 -84.918064 61.155725 -143.610009 6.307777 -146.849467 -1.681941 -0.097775 5.42127 -0.669796 -0.006217 0.803111 -117.961903 -51.265444 -55.871809 2.762921 44.923503 -89.774211 7.725462 44.141605 -1.887729 11.61204 11.746597 -3.456946 38.640477 26.606345 -40.122426 27.583591 32.898533 -19.522079 177.777344 -17.908694 -102.969388 158.506746 6.457532 -140.093979 150.960937 30.758232 -130.112106 64.107281 74.592604 -82.055329 -3.264501 -14.006804 3.53852 146.804402 13.730548 145.790221 5.360129 -19.007761 1.1792 -0.029403 -2.707403 -0.622448 -20.607078 -32.827273 -76.074371 -81.407961 35.469437 21.497915 -30.695388 -46.230796 31.461202 -2.063077 -1.142789 -1.021232 65.15117 -37.394132 0.0 -76.929277 31.9088 -126.906557 -89.302969 -17.854799 165.065178
-55.7341 57.903400000000005 16.9388 -169.269508 -55.240676 170.398317 -0.356852 7.840928 176.795479 -1.267686 7.071926 -159.32448 4.52857 14.464359 41.177552 -11.687849 -20.495562 -18.138618 6.557575 -0.316341 -5.517668 -2.387119 0.140163 -6.719736 -153.047516 6.903218 159.141836 -73.085307 49.231792 34.883339 2.512026 -13.505551 -146.472663 -137.49967 34.127219 124.338159 5.363105 -10.474301 0.658879 -140.727007 -60.15287 129.5589 -19.388841 23.218847 15.643437 -169.406838 -25.865966 114.27233 -172.041289 -38.651088 145.863502 -165.270354 -6.894867 142.908096 -75.762542 -67.940231 -91.282915 22.299716 0.249036 -6.000698 -144.220837 9.215153 -147.74796 -11.143538 -28.093788 -5.971331 -0.361993 0.167538 0.753595 -72.176717 -9.056444 -34.075961 -117.433056 18.73732 -78.749608 -174.918157 17.452343 -150.052323 20.058074 18.248465 -7.307132 0.431164 7.228283 -10.583591 44.993427 41.401051 -34.769599 81.931752 44.972008 -52.453055 91.228995 60.07378 -80.422113 4.08838 20.939611 -9.604163 70.770504 75.155416 -88.756516 2.140356 -62.664218 13.477341 -4.517619 80.914318 -30.574632 147.862581 54.204851 155.532387 -0.699156 -2.777905 -0.978618 -22.535007 -33.021359 102.378025 86.960102 -35.43378 179.117038 -156.14444 -59.4124 -61.338536 -177.137865 76.775081 -2.939973 -134.88529 10.248934 -79.950705 -78.753485 7.695362 -60.463768 -27.777377 22.946022 145.245618
-56.1035 57.7496 16.9797 -168.810348 -55.256026 170.067144 0.010993 12.618899 -0.001955 0.698933 -11.942995 17.331588 8.986527 27.658477 125.851625 -31.057417 19.600189 -95.269307 6.547822 -0.347858 -6.07546 -2.065033 0.103124 -5.717156 -149.507151 21.525466 154.901235 -62.715108 25.115563 37.24552 -165.681703 -14.1463 -65.565733 -18.455054 -63.831211 -20.321658 -163.467364 3.462482 86.787868 121.691132 -51.954339 86.60714 -116.540555 26.154343 98.5258 -116.464751 43.051249 92.983397 -38.06818 52.108274 30.195899 -12.255961 36.50921 11.217128 -146.495767 2.832355 -175.763868 -150.641857 -22.52308 -167.435688 -19.025146 -39.642034 -15.472115 -78.848675 -46.853982 -75.560736 40.510158 -85.12716 62.108452 65.04619 -47.062888 112.416231 12.038445 -37.39661 127.546769 -138.752741 -51.898807 -124.410197 -97.09584 -49.926608 -42.09981 65.943964 31.386035 -16.767901 49.098523 42.809905 -38.526399 170.287517 -5.170453 -107.209713 160.44716 -0.114183 -141.227888 172.781137 -18.763952 -139.946746 -0.283767 6.345555 0.563144 154.276696 -2.742402 -167.905005 25.282178 -39.062818 20.454381 166.144961 44.749423 136.76741 179.47644 78.289621 0.377991 155.10759 39.701435 16.120826 63.332965 77.523357 -140.82216 117.910153 33.095148 -6.935721 178.954453 76.495804 -0.0 -134.676348 9.874182 -0.0 29.833001 77.439863 109.090603 65.383543 58.970764 -157.461172
-56.462199999999996 57.53509999999999 17.0576 -168.498662 -55.068017 169.912149 0.168554 7.856493 178.767093 -0.886773 7.204002 -161.602609 -3.821455 13.669114 -4.572768 16.242013 -20.645869 33.269303 6.241021 -0.357829 -6.556471 -1.727997 0.07372 -4.885409 -158.271499 -30.82055 166.688225 -2.34019 77.405359 -38.210621 -142.714218 63.846867 -98.393119 -19.729262 -66.802656 -22.872044 -8.739896 3.248521 2.705418 -80.368842 20.421099 79.005886 -46.25206 38.27707 37.981643 -5.711903 22.258269 1.439554 -1.033856 -1.860005 -0.202605 -8.806773 32.116068 7.057511 -80.554256 -68.173904 -96.962517 -93.736323 83.265079 119.201428 -147.162804 33.384135 -154.571497 -148.621527 59.991454 -163.931433 158.390568 -47.834896 -171.505415 177.550683 3.467777 132.70949 63.881777 -79.697779 -16.952521 5.921937 39.071812 -2.578408 170.428637 -10.109013 -88.334455 62.969569 -11.133119 -17.578987 138.079684 6.810836 -116.775384 -0.434283 8.573407 14.947145 162.680564 -6.623676 -142.065347 145.681869 34.708534 -127.374802 0.178131 -0.923431 2.990214 -10.586758 12.89039 -6.086443 12.771623 -23.847641 7.847152 3.455624 -11.400422 13.853541 0.614251 -2.211907 0.871486 -23.963615 -31.035375 -13.329244 67.644807 77.295226 -149.161486 159.567963 15.3841 -40.760903 -3.882921 -0.53973 -1.930256 69.508485 -38.769238 162.096161 71.299616 -15.125089 -47.732183 7.294367 -4.181903 -48.450185
-56.807300000000005 57.2689 17.185200000000002 -168.349542 -54.76469 169.942716 0.09444 7.895278 173.06311 -1.875901 7.116891 -155.883763 8.496448 18.355496 70.312074 -25.238312 -10.020552 -47.175451 5.872692 -0.348505 -6.786369 -1.338224 0.049082 -4.200767 4.78251 -44.35951 -8.263823 46.133803 2.346682 -34.161484 -115.313286 -83.921608 94.074258 -141.971191 29.105301 128.938201 -174.680317 -7.79681 87.766486 -132.921329 13.318685 62.70677 -13.197127 18.48619 11.07352 -165.033991 -16.422515 112.285018 0.60151 -6.58367 -0.724644 -33.359178 56.78301 28.292341 -146.192227 15.957177 179.445935 -81.909084 -71.280033 -100.051236 1.202771 -0.935269 6.555174 -26.461093 -34.729484 -32.851281 8.138712 32.324524 -9.157785 -60.881004 -10.096056 -60.255138 -2.426255 -40.326882 -84.110783 9.728532 48.190593 -4.279977 115.521034 30.143942 -69.107473 154.819058 -29.384806 -73.140919 -54.633021 -72.725772 -9.568479 -8.820598 28.014321 -0.745061 2.945054 2.295293 -1.867405 29.193257 59.204431 -25.539787 76.751008 75.63484 -94.434978 75.401006 -84.262698 87.907526 145.699055 7.157958 143.480321 1.689306 3.353809 -6.685695 -177.176891 77.597255 -2.890456 153.227708 38.72716 38.884677 93.688608 51.016972 109.157095 50.931264 -2.962085 139.19879 -30.204468 5.03748 -21.886889 98.955322 -18.285212 180.0 82.527808 -26.456816 67.422002 -50.326524 -7.537839 -175.136253
-57.1391 56.979800000000004 17.366899999999998 -168.269057 -54.490173 170.065625 0.51974 12.686775 -0.093021 0.790492 -12.095438 17.237845 8.191094 29.20385 136.38495 -29.285973 25.230101 -103.976416 5.487119 -0.316697 -6.601471 -0.850241 0.028139 -3.791011 -82.521722 68.27734 85.913376 -3.050193 9.853653 65.833725 -174.554408 66.250587 31.031109 -136.46881 34.608093 122.723116 -2.995863 -1.041958 1.972917 -133.565016 -39.559037 119.813785 -151.140518 -19.428488 119.988187 -177.32253 -43.500572 114.074907 2.463162 -11.819385 -1.188214 11.030269 -25.3388 -3.629313 -0.735787 -0.875309 -3.19762 -155.361683 -3.289813 165.705052 -145.454162 55.06103 -162.662696 -143.839276 40.698725 -157.820619 157.290771 -17.329931 -165.135036 16.141364 24.610931 36.487545 -73.312794 -72.918624 50.712832 -158.354533 -29.018578 -142.425719 3.942856 5.704861 -2.83685 -25.635937 -48.701129 25.545819 44.771889 42.361515 -33.437452 -7.558704 -11.727034 -3.030066 15.600985 28.171504 -10.665231 159.332242 -5.687017 -146.338248 0.458948 10.201073 -0.291578 -14.932416 -32.7417 -1.804407 136.958809 -15.338598 134.991817 47.360493 -54.190664 39.760093 -171.706953 77.152482 -7.383879 151.482365 37.91666 18.001286 79.529468 64.034458 10.751732 107.54429 84.393602 151.305671 -160.224686 75.543572 -17.429726 -139.950497 8.905008 100.434465 75.96973 -4.111005 -176.543266 2.579322 6.002251 85.029841
-57.4897 56.785799999999995 17.6316 -168.561433 -53.785194 170.577785 0.621607 12.564719 -0.0 0.865145 -12.035019 17.096839 -9.630244 28.479569 -110.385987 29.920318 30.442805 131.049986 5.64176 -0.278813 -5.653911 -0.424022 0.01146 -3.09623 -12.612565 41.329079 14.580322 -18.523545 51.427113 84.674865 44.983085 -8.280414 140.737033 -27.364831 3.474896 6.231171 -10.550367 6.236809 3.471769 -138.348554 -45.044813 115.266157 -168.852437 -47.77313 119.260638 133.051899 -69.208668 72.547253 -162.005684 -6.68155 142.312276 2.588619 0.107038 2.257345 -145.478228 -1.264739 -176.197711 27.908961 69.855976 -17.238912 3.218975 1.630191 8.720663 2.70347 -1.69739 -12.945306 -3.838304 -44.090364 8.970731 108.401735 16.645114 178.046676 75.801064 12.102229 93.043175 -30.553175 -46.65827 -23.333932 1.151157 3.342172 -1.890751 128.669899 -28.468866 -122.574003 42.440467 41.824853 -30.441663 -60.165818 -50.649186 -26.45484 -83.947142 -79.533176 -57.072352 -78.236911 -79.097406 -54.527906 146.266889 1.391787 176.656831 -12.244101 26.212895 11.063314 144.488358 9.804483 144.17211 150.246648 24.811615 154.107 -176.888653 76.893331 -3.194396 154.490837 35.750168 -140.760711 -88.612329 -53.9856 2.001648 101.900937 46.786232 7.716654 0.033621 -0.734558 2.620684 66.431323 -42.403373 -180.0 75.461085 -34.1619 -19.945058 -107.157026 49.597883 26.932724
